<?xml version="1.0" standalone="no"?><!DOCTYPE svg PUBLIC "-//W3C//DTD SVG 1.1//EN" "http://www.w3.org/Graphics/SVG/1.1/DTD/svg11.dtd"><svg t="1779702062678" class="icon" viewBox="0 0 1123 1024" version="1.1" xmlns="http://www.w3.org/2000/svg" p-id="1785" xmlns:xlink="http://www.w3.org/1999/xlink" width="219.3359375" height="200"><path d="M592.703027 755.724432c-2.377946 4.029297-4.029297 8.587027-6.902649 11.394324a32154.254794 32154.254794 0 0 1-121.473405 117.576217c-9.511784 9.181514-12.55027 7.926486-19.816216-3.401784-22.128108-34.612324-44.025027-69.488865-67.243027-103.044325-34.744432-50.201081-75.764-92.772919-116.915676-135.146594A1828.376215 1828.376215 0 0 0 84.218919 484.506486c-10.568649-8.421892-21.533622-16.183243-32.168324-24.506054-10.733784-8.355838-10.931946-14.003459-0.594487-22.623513 24.241838-20.278595 48.648811-40.292973 72.98973-60.340379 5.284324-4.293514 10.799838-8.157676 15.886-12.715405 19.750162-17.603405 40.788378-19.618054 62.288973-6.043946 35.338919 22.359297 71.503513 43.331459 105.092 69.092541 30.21973 23.218 58.424811 50.729513 85.705135 78.835513a2731.830539 2731.830539 0 0 1 104.596594 115.066162c17.339189 20.014378 32.201351 43.10027 48.21946 64.766 13.640162 18.495135 27.478486 36.759081 40.887459 55.485405 2.543081 3.533892 3.467838 8.653081 5.614595 14.201622zM231.585513 273.694973c10.66773 3.765081 21.896919 6.143027 31.970163 11.559459 57.169784 30.781189 111.135946 68.233838 162.492972 111.499243a1269.889189 1269.889189 0 0 1 120.152325 116.387244c37.915027 41.614054 71.76773 87.323459 103.506702 135.542918 6.935676 10.568649 13.541081 21.467568 20.278595 32.267406 4.227459 6.737514 7.497135 7.464108 13.276865 0.66054 31.904108-37.650811 64.402703-74.575027 96.604054-111.86254 9.875081-11.427351 19.386865-23.317081 29.228919-34.843514 29.922486-35.041676 59.778919-70.281513 89.998648-104.992918 41.944324-48.153405 84.351027-95.679297 126.229298-143.86573 22.161135-25.463838 43.562649-51.918486 65.591675-77.547459 4.689838-5.515514 10.271405-11.262216 16.315351-13.309892 3.566919-1.188973 10.832865 3.236649 12.880541 7.563189 5.416432 11.229189 2.840324 33.918757-6.506324 44.817675-31.342649 36.593946-61.43027 74.707135-91.980271 112.291892-23.911568 29.427081-47.724054 58.98627-71.602594 88.446379-27.016108 33.357297-54.164324 66.648541-81.147405 100.071891-17.867622 22.128108-35.471027 44.553459-53.404703 66.582487-38.311351 46.997459-76.65573 93.961892-115.165243 140.728162-66.978811 81.345568-134.023676 162.526-201.233676 243.574324-5.21827 6.275135-11.493405 11.823676-18.098811 15.720865-3.302703 1.981622-9.247568 0.89173-12.517243-1.585297-2.11373-1.585297-2.642162-8.454919-2.047676-12.550271 4.029297-27.676649 18.230919-48.714865 32.498595-69.687026 29.162865-42.935135 58.127568-86.002378 87.125297-129.036595 16.051135-23.779459 32.333459-47.32773 47.856162-71.602595 2.11373-3.302703 2.212811-11.691568 0.165136-14.928216-16.678649-26.55373-33.357297-53.239568-51.522163-78.340108-20.047405-27.808757-40.193892-55.980811-62.949513-80.453838a1586.849567 1586.849567 0 0 0-103.704865-102.020486c-49.078162-43.925946-104.20027-75.896108-159.025135-108.130487-14.399784-8.454919-29.063784-16.282324-43.562649-24.439999-8.520973-4.854973-16.183243-11.163135-15.65481-23.911568 0.462378-10.271405 12.484216-20.807027 24.340919-22.590487 2.972432-0.429351 6.076973-0.066054 9.148486-0.066054l0.462378-1.981621z m94.226108 21.599675c-4.954054-3.963243-10.832865-8.554-16.645621-13.21081-22.194162-17.735514-21.797838-19.618054 1.750432-34.678379 68.299892-43.66173 136.269513-88.017027 204.503352-131.777837 35.206811-22.590486 70.710865-44.487405 106.049783-66.780649 10.271405-6.473297 20.476757-13.144757 30.649081-19.816216 5.812757-3.765081 11.493405-5.614595 15.886 2.311892 4.987081 9.082432-2.146757 12.22-6.341189 15.423621-49.375405 37.122378-98.915946 73.848432-148.324378 110.87173-42.142486 31.573838-84.152865 63.378865-126.19627 95.117838-16.744703 12.616324-33.390324 25.430811-50.234108 37.915027-2.807297 2.047676-6.308162 2.675189-11.097082 4.623783zM827.723351 24.935405c-13.475027 11.229189-26.751892 22.821676-40.458108 33.621514-28.172054 22.293243-56.278054 44.685568-84.945514 66.054054-46.634162 34.678378-93.664649 68.597135-140.563027 102.780108-44.685568 32.564649-89.602324 64.633892-134.023675 97.627892-23.449189 17.405243-37.782919 16.843784-54.494595-4.854973-6.539351-8.454919-5.944865-16.645622 2.146757-23.118919 84.318-67.176973 168.503892-134.618162 253.086108-201.365784 36.792108-29.030757 74.145676-57.070703 111.796486-84.516162 19.816216-14.432811 41.548-13.607135 62.949514-4.722865 8.587027 3.599946 16.612595 8.950324 24.902378 13.541081l-0.396324 4.954054z m-320.296108 391.964757c-4.656811-2.014649-9.313622-2.311892-11.460378-5.185243-9.908108-13.475027-19.618054-27.247297-28.403244-41.812216-5.119189-8.587027-2.311892-17.174054 4.954054-22.986811 39.203081-31.375676 78.670378-62.255946 117.609244-94.027946 64.171513-52.314811 127.97973-105.224108 192.019135-157.770108 31.177513-25.662 62.421081-51.158865 93.796756-76.556649 4.954054-3.99627 10.139297-8.22373 15.720865-10.238378 4.260486-1.486216 10.733784-1.783459 13.805297 1.089892 8.025568 7.497135 15.522703 16.282324 21.863892 25.926216 7.66227 11.724595 4.954054 23.515243-6.473297 33.258216-55.221189 47.096541-110.541459 93.994919-165.729621 141.157514-59.085351 50.43227-118.038595 101.062703-177.057892 151.594054-18.296973 15.654811-36.527892 31.342649-55.056054 46.568108-4.788919 3.930216-10.568649 6.143027-15.588757 8.983351z m-60.406432 579.789459c0 3.203622 0.33027 6.473297-0.033027 9.577838-1.651351 15.192432-13.442 22.920757-23.118919 13.375946-14.961243-14.664-28.700486-31.144486-42.373676-47.558919-12.880541-15.390595-24.638162-32.168324-37.650811-47.426811a27207.995121 27207.995121 0 0 0-143.931784-166.984648c-22.029027-25.33173-44.586486-49.969892-66.945783-74.839244-31.375676-34.909568-62.784378-69.753081-94.193081-104.629621-10.568649-11.724595-21.368486-23.151946-31.573838-35.338919-10.10627-12.054865-9.643892-33.786649 1.816486-42.142487 5.680649-4.095351 15.687838-6.770541 20.873081-3.500864 20.377676 12.781459 41.184703 25.893189 58.986271 43.10027a2636.547566 2636.547566 0 0 1 115.000108 118.269784 2550.049782 2550.049782 0 0 1 101.293892 118.567027c30.384865 37.650811 59.448649 76.820865 88.083081 116.387243 16.480486 22.755622 31.474757 47.096541 46.006648 71.734702 5.119189 8.653081 6.836595 20.146486 10.10627 30.384865l-2.311891 1.023838z m157.637999-496.165027c-20.641892 0.561459-28.469297-14.003459-37.749891-24.506054-14.697027-16.612595-14.664-31.309622 1.089892-47.030486 22.788649-22.722595 46.76627-43.694757 70.413621-65.129297a28749.960958 28749.960958 0 0 1 108.658919-97.76c50.663459-45.445189 101.426-90.725243 152.023405-136.20346 23.416162-21.038216 46.204811-43.034216 70.017298-63.312811 8.058595-6.836595 17.834595-15.852973 28.832594-7.926486 13.673189 9.809027 24.968432 23.515243 25.364757 43.397513 0.165135 6.935676-7.265946 15.522703-12.880541 20.906109-26.355568 25.298703-53.404703 49.540541-79.991459 74.508972-54.09827 50.861622-107.998378 102.053513-162.129676 152.816054a30660.57447 30660.57447 0 0 1-143.007027 132.999838c-7.827405 7.232919-16.183243 13.541081-20.641892 17.240108z m86.762 124.247676c-9.842054-7.332-19.816216-14.531892-29.559189-22.095081a97.363676 97.363676 0 0 1-10.568648-9.974162c-10.436541-10.931946-9.313622-27.874811 1.783459-38.476487 10.733784-10.238378 21.170324-20.939135 31.309622-32.036216 36.66-39.962703 73.088811-80.255676 109.715783-120.218378 22.920757-25.034486 46.10573-49.672649 69.026487-74.608054 42.043405-45.643351 83.888649-91.484865 125.998108-137.029135a1919.86108 1919.86108 0 0 1 51.257946-53.173514c10.865892-10.865892 20.774-13.375946 31.838054 2.080703 4.194432 5.878811 9.049405 11.064054 13.673189 16.513513 7.332 8.686108 7.199892 17.174054-0.132108 25.761081-31.210541 36.395784-62.421081 72.824595-93.565568 109.286433-31.606865 36.924216-62.949513 74.145676-94.853621 110.706594-37.948054 43.529622-76.523622 86.266595-114.471676 129.763189-20.608865 23.581297-40.226919 48.351568-60.868811 71.866811-7.926486 9.049405-15.654811 20.245568-28.832594 18.197892l-1.750433 3.434811z" fill="#7688FF" p-id="1786"></path></svg>